<svg xmlns="http://www.w3.org/2000/svg" viewBox="0 0 285.17 285.17"><defs><style>.cls-1{fill:#f4bf06;}.cls-2{fill:#fff;}.cls-3{fill:none;}</style></defs><g id="Calque_2" data-name="Calque 2"><g id="Calque_1-2" data-name="Calque 1"><circle class="cls-1" cx="142.58" cy="142.58" r="142.58"/><path class="cls-2" d="M142.58,279.89c-75.71,0-137.3-61.6-137.3-137.31S66.87,5.28,142.58,5.28s137.31,61.6,137.31,137.3S218.3,279.89,142.58,279.89Zm0-270.1C69.36,9.79,9.79,69.36,9.79,142.58s59.56,132.8,132.79,132.8,132.8-59.58,132.8-132.8S215.8,9.79,142.58,9.79Z"/><path class="cls-3" d="M227.61,93.37c0-3.71-2.56-8-9.76-8-5.34,0-11.3,4.06-11.61,10.62l-.07,1.41,9.5-.15C226,97.07,227.61,96.17,227.61,93.37Z"/><path class="cls-2" d="M103.55,97.24v17.92c0,3.25,2,5.34,5.09,5.34h2.83V97c0-12-5.78-18.41-16.72-18.41a16.49,16.49,0,0,0-13.54,7.14C78.38,81,73.87,78.61,67.8,78.61,57.29,78.61,50,85.89,50,96.33v18.83c0,3.4,1.94,5.34,5.34,5.34h2.59V97.24c0-7.91,3-11.6,9.43-11.6,6,0,9.44,4.23,9.44,11.6v17.92c0,3.6,1.69,5.34,5.18,5.34h2.75V97c0-8.08,2.85-11.38,9.84-11.38C100.68,85.64,103.55,89.33,103.55,97.24Z"/><path class="cls-2" d="M131.58,107.57V85a5.31,5.31,0,0,0-5.34-5.64h-2.51v29.19c0,8.17,4.43,12.32,13.16,12.32,2.8,0,4.53-1.66,4.53-4.35V114H138C133.57,114,131.58,112,131.58,107.57Z"/><path class="cls-2" d="M127.85,74.25a5.06,5.06,0,0,0,5.17-5,5.12,5.12,0,0,0-5.17-5,5.22,5.22,0,0,0-5.25,5A5.12,5.12,0,0,0,127.85,74.25Z"/><path class="cls-2" d="M168.06,113.92h-5c-4.51,0-6.52-1.94-6.52-6.28V70.89c0-3.49-2-5.57-5.42-5.57h-2.52v43.15c0,8.17,4.49,12.32,13.34,12.32,4.14,0,6.14-1.42,6.14-4.35v-2.52Z"/><path class="cls-2" d="M193.89,116.45v-2.53h-5c-4.52,0-6.53-1.94-6.53-6.28V70.89c0-3.49-2-5.57-5.42-5.57H174.4v43.15c0,8.17,4.49,12.32,13.34,12.32C191.89,120.8,193.89,119.38,193.89,116.45Z"/><path class="cls-2" d="M218.74,121.26c9.12,0,14.78-3,14.78-7.77V110.2h-.75l-.07.06c-3,2.73-7.36,4.11-12.92,4.11-7.5,0-12.66-4.22-13.52-11h10.37c14.07,0,18.58-2.52,18.58-10.35,0-8.6-8.56-14.38-16.55-14.38-12,0-20.43,9.1-20.43,22.12C198.23,112.63,206.86,121.26,218.74,121.26ZM206.24,96c.31-6.56,6.27-10.62,11.61-10.62,7.2,0,9.76,4.33,9.76,8,0,2.8-1.65,3.7-12,3.85l-9.5.15Z"/><path class="cls-2" d="M109.72,133.35c-5.8,0-9.69,4.06-9.69,10.11a9.44,9.44,0,0,0,9.73,9.35c4.72,0,7.11-1.38,7.11-4.12v-1.28c-1.73,1.45-4.3,1.76-6.18,1.76-3.08,0-5.42-1.63-5.8-4l0-.19h3.48c6.76,0,9.28-1.2,9.28-4.44C117.63,135.86,113.55,133.35,109.72,133.35Zm-2.46,8.59h-2.42l0-.79a4.36,4.36,0,0,1,4.39-4.2c2.52,0,4,1.1,4,3C113.25,141.49,111.9,141.94,107.26,141.94Z"/><path class="cls-2" d="M126.62,129.47h-1a3.42,3.42,0,0,0-2.23,1.25,4.37,4.37,0,0,0-1.42,3.65v11.38c0,4.49,2.55,6.86,7.38,6.86,2.69,0,4.25-1.09,4.25-3v-1.53a7.76,7.76,0,0,1-3.64.66c-2.25,0-3.34-1.17-3.34-3.56V137.6h4.16c2.05,0,2.83-1.27,2.83-2.07v-1.77h-7v-4.29Z"/><path class="cls-2" d="M157.84,144.25c0,4.1-2.29,4.72-3.66,4.72-2.69,0-4.23-1.85-4.23-5.05v-7c0-2.18-1.27-3.2-4-3.2h-.77v10.61c0,5,3.5,8.44,8.71,8.44,5.75,0,8.65-2.94,8.65-8.75V137c0-2.18-1.26-3.2-4-3.2h-.73v10.49Z"/><path class="cls-2" d="M167.73,141.29v8.19c0,1.72,1.37,2.93,3.35,2.93h1.33V141.62c0-2.72,1.46-4.42,3.82-4.42,2.8,0,4.24,1.61,4.24,4.76v7.52c0,1.72,1.43,2.93,3.48,2.93h1.18V141.55c0-5.66-4.26-8.19-8.49-8.19C170.49,133.35,167.73,137.33,167.73,141.29Z"/><path class="cls-2" d="M233.75,140.65H195a2.23,2.23,0,0,0,0,4.45h38.8a2.23,2.23,0,0,0,0-4.45Z"/><path class="cls-2" d="M90.21,140.65H51.42a2.23,2.23,0,1,0,0,4.45H90.21a2.23,2.23,0,1,0,0-4.45Z"/><path class="cls-2" d="M71.25,171.63a10.33,10.33,0,0,0-6.57-2.08c-5.68,0-7.83,2.69-7.83,11.46v23.05H53.73c-2.63,0-4.16-2-4.16-4.69V180.48c0-11.38,5.77-17.45,14.08-17.45,5.84,0,8,2.46,8,5.22v3.38Z"/><path class="cls-2" d="M92.92,186.69H82.37c.72,6.83,5.68,11.68,13.67,11.68,6.57,0,10.56-2,13-4.23h.4v3.08c0,4.3-4.8,7.6-14.4,7.6-11.75,0-20.07-8.68-20.07-20.51,0-13.29,8.64-22.12,20-22.12,8.32,0,16.15,6.07,16.15,14.29C111.07,183.68,107.56,186.69,92.92,186.69Zm1.2-18.22a11.7,11.7,0,0,0-11.75,11l-.08,1.7L92,181c10.32-.15,12.07-1.08,12.07-4.15C104,172.39,100.83,168.47,94.12,168.47Z"/><path class="cls-2" d="M138.67,204.81a14.4,14.4,0,0,1-12.32-7.22v19.52h-2.63c-3,0-4.72-1.47-4.72-5.3V184.6c0-13.9,6.79-22.43,20.47-22.43,9.44,0,18.39,8.23,18.39,20.36C157.86,196.6,149.46,204.81,138.67,204.81Zm-.81-36c-7.51,0-11.67,5.45-11.67,13.91,0,10.6,5.36,15.6,13.28,15.6,6.87,0,11-4.92,11-13.83C150.5,173.31,145.3,168.78,137.86,168.78Z"/><path class="cls-2" d="M181,204.81c-8.72,0-16.31-4.84-16.31-12.14,0-8.84,7.11-13.68,19.9-13.68h5.76v-1.92c0-6-3.11-8.46-10.07-8.46-6.41,0-11.13,2.31-13.6,5.61h-.4v-3.37c0-3.77,5.12-8.69,14.72-8.69,10.88,0,16.63,5.45,16.63,15.44v12.9C197.61,198.82,193,204.81,181,204.81Zm9.43-20h-5.84c-8.55,0-12.47,2.54-12.47,7.08,0,3.6,3.68,6.45,9.2,6.45,6.48,0,9.11-2.45,9.11-8.38v-5.15Z"/><path class="cls-2" d="M218.88,204.81c-7.19,0-13-3.22-13-8.14v-3h.4c2.4,2.54,7.2,4.61,12.72,4.61,6.32,0,9.12-1.92,9.12-6,0-3.38-1.53-4.84-11.27-6.84-8-1.61-11.76-4.22-11.76-10.36,0-6.69,6.32-12.91,17-12.91,6.32,0,12.47,2.77,12.47,7.77V173h-.4c-1.85-2.15-6.48-4.23-11.51-4.23-7.28,0-10.16,2.39-10.16,5.84,0,2.77,1.6,3.92,10.48,5.77,8.47,1.76,12.63,5.53,12.63,11.22C235.59,200.2,228.64,204.81,218.88,204.81Z"/><path class="cls-2" d="M71.25,171.63a10.33,10.33,0,0,0-6.57-2.08c-5.68,0-7.83,2.69-7.83,11.46v23.05H53.73c-2.63,0-4.16-2-4.16-4.69V180.48c0-11.38,5.77-17.45,14.08-17.45,5.84,0,8,2.46,8,5.22v3.38Z"/><path class="cls-2" d="M92.92,186.69H82.37c.72,6.83,5.68,11.68,13.67,11.68,6.57,0,10.56-2,13-4.23h.4v3.08c0,4.3-4.8,7.6-14.4,7.6-11.75,0-20.07-8.68-20.07-20.51,0-13.29,8.64-22.12,20-22.12,8.32,0,16.15,6.07,16.15,14.29C111.07,183.68,107.56,186.69,92.92,186.69Zm1.2-18.22a11.7,11.7,0,0,0-11.75,11l-.08,1.7L92,181c10.32-.15,12.07-1.08,12.07-4.15C104,172.39,100.83,168.47,94.12,168.47Z"/><path class="cls-2" d="M138.67,204.81a14.4,14.4,0,0,1-12.32-7.22v19.52h-2.63c-3,0-4.72-1.47-4.72-5.3V184.6c0-13.9,6.79-22.43,20.47-22.43,9.44,0,18.39,8.23,18.39,20.36C157.86,196.6,149.46,204.81,138.67,204.81Zm-.81-36c-7.51,0-11.67,5.45-11.67,13.91,0,10.6,5.36,15.6,13.28,15.6,6.87,0,11-4.92,11-13.83C150.5,173.31,145.3,168.78,137.86,168.78Z"/><path class="cls-2" d="M181,204.81c-8.72,0-16.31-4.84-16.31-12.14,0-8.84,7.11-13.68,19.9-13.68h5.76v-1.92c0-6-3.11-8.46-10.07-8.46-6.41,0-11.13,2.31-13.6,5.61h-.4v-3.37c0-3.77,5.12-8.69,14.72-8.69,10.88,0,16.63,5.45,16.63,15.44v12.9C197.61,198.82,193,204.81,181,204.81Zm9.43-20h-5.84c-8.55,0-12.47,2.54-12.47,7.08,0,3.6,3.68,6.45,9.2,6.45,6.48,0,9.11-2.45,9.11-8.38v-5.15Z"/><path class="cls-2" d="M218.88,204.81c-7.19,0-13-3.22-13-8.14v-3h.4c2.4,2.54,7.2,4.61,12.72,4.61,6.32,0,9.12-1.92,9.12-6,0-3.38-1.53-4.84-11.27-6.84-8-1.61-11.76-4.22-11.76-10.36,0-6.69,6.32-12.91,17-12.91,6.32,0,12.47,2.77,12.47,7.77V173h-.4c-1.85-2.15-6.48-4.23-11.51-4.23-7.28,0-10.16,2.39-10.16,5.84,0,2.77,1.6,3.92,10.48,5.77,8.47,1.76,12.63,5.53,12.63,11.22C235.59,200.2,228.64,204.81,218.88,204.81Z"/></g></g></svg>