<svg clip-rule="evenodd" fill-rule="evenodd" stroke-linejoin="round" stroke-miterlimit="2" viewBox="0 0 137 120" xmlns="http://www.w3.org/2000/svg" xmlns:xlink="http://www.w3.org/1999/xlink"><linearGradient id="a" gradientTransform="matrix(0 -600.7 600.7 0 131959 819.7)" gradientUnits="userSpaceOnUse" x1="0" x2="1" y1="0" y2="0"><stop offset="0" stop-color="#808080" stop-opacity=".25"/><stop offset=".54" stop-color="#808080" stop-opacity=".12"/><stop offset="1" stop-color="#808080" stop-opacity=".1"/></linearGradient><path d="m484.39 725.3c3-5.39 6.59-10.47 9.49-15.93 2.65-5 4.72-10.3 7.11-15.44 4.09-8.8 9.13-17.12 13.72-25.68 3-5.61 5.9-11.72 5.32-18.06-.55-6-4.07-11.2-5.43-17-5.54-23.81-18.87-45.67-27-68.7-2.08-5.84-4.1-11.72-6.7-17.36-5-10.85-12-20.6-19-30.27-2.523-3.694-5.331-7.185-8.4-10.44-2.51-2.51-5.33-4.72-7.61-7.44-4.7-5.6-6.9-13.66-12.78-18-.1.26-.21.51-.32.77-4.21-10.75-18.33-17.84-26.52-26.75-4.768-5.441-9.155-11.205-13.13-17.25l-17.83-25.77c-3.07-4.44-6.2-9-7.44-14.29-1.52-6.38-.11-13.18-1.61-19.56-.959-3.84-2.829-7.394-5.45-10.36.17-.05.35-.12.53-.16 3.4-.91 7-1.07 10.37-1.88 7.35-1.75 13.74-6.45 21.06-8.33 3.74-1 7.73-1.2 11.12-3 3.367-2.021 5.098-5.975 4.3-9.82-2.37-12.55 4.25-25.27 3.13-38-.3-3.52-1.2-6.95-1.78-10.44-1.35-8.1-1.1-16.4-.62-24.62 2.282-3.704 5.02-7.108 8.15-10.13 4.5-4.34 9.87-8 13-13.43 2.73-4.81 3.39-10.62 2.7-16.12-.49-4-1.85-8.21-5-10.64s-7.67-2.61-11.48-1.34c-.53.17-1.05.38-1.56.6-3.217-1.609-6.958-1.826-10.34-.6-3.8 1.26-7.06 3.77-10.12 6.38-1.814 1.422-3.405 3.107-4.72 5-1.93 3-2.49 6.7-3.22 10.23-1.552 6.814-3.815 13.447-6.75 19.79-.54 1.12-2 3.13-3.18 5.05l-2.14-.44c-.93 8.91-8.39 15.45-12.93 23.15-2.21 3.74-3.76 7.83-5.75 11.7-2.271 4.213-4.806 8.278-7.59 12.17-2.7 4-5.403 7.963-8.11 11.89-3.392 5.157-7.064 10.125-11 14.88-3.67-.3-7.34-.57-11-.63-6.143-.088-12.279.458-18.31 1.63-.352-2.121-.569-4.262-.65-6.41v-.39c0-.52.06-1.14.13-1.81 10.242-6.866 16.406-18.412 16.412-30.743-.008-13.07-6.933-25.203-18.182-31.857.199-1.124.326-2.26.38-3.4v-2c0-.34 0-.68-.07-1-.062-.674-.176-1.343-.34-2-.08-.32-.17-.64-.28-1-.213-.627-.491-1.231-.83-1.8-.021-.035-.044-.068-.07-.1-.13-.21-.26-.42-.41-.62s-.13-.16-.19-.24c-.105-.146-.219-.287-.34-.42l-.25-.26c-.11-.12-.22-.24-.34-.35l-.28-.25-.35-.31-.68-.51-.35-.23-.36-.23c-.12-.08-.25-.15-.38-.22l-.37-.21-.4-.2-.37-.18-.44-.19-.36-.16-.48-.18-.34-.13-.52-.18-.31-.1-.57-.18-.27-.08-.62-.17-.24-.07-.65-.16-.19-.05-.72-.16h-.12l-1.06-.23c-4.38-.9-8.787-1.677-13.22-2.33-3.63-.54-7.35-1-10.93-.19-4.94 1.1-9.06 4.44-13.68 6.51-5.46 2.46-11.52 3.11-17.34 4.46s-11.81 3.66-15.46 8.43c-2.78 3.64-3.89 8.27-4.72 12.78-6.92 37.64.54 76.25 1.95 114.51.55 14.89-.12 30.81-8.56 43l24.58-.65c1.18 0 2.37-.07 3.57-.14s2.4-.16 3.58-.3c3.117-.292 6.146-1.2 8.91-2.67 1.28-.729 2.449-1.638 3.47-2.7 3.34-3.44 5.12-8.25 6.75-12.85.55-1.55 1.1-3.12 1.59-4.7.2-.66.39-1.32.56-2l.08-.32.28.13c1 1.88 2.13 3.72 3.33 5.5 4.29 6.32 9.73 11.72 15.13 17.09 10.73 10.65 21.7 21.49 35.15 28.33 4.54 2.29 9.45 4.22 12.91 8 1.7 1.83 3.17 4.18 5.58 4.81 1.5.39 3.15 0 4.58.64 2.1.88 2.87 3.41 3.84 5.49s3.16 4.2 5.24 3.25c-.791 3.934.734 7.991 3.92 10.43 1.007.559 1.876 1.339 2.54 2.28.32.858.496 1.764.52 2.68.427 2.553 1.776 4.863 3.79 6.49-1.95 3.23-.39 7.86-.34 11.89 0 3.38-1.11 6.64-1.87 9.93-2.21 9.65-1 19.75.8 29.48 1 5.37 2.27 10.93 5.77 15.1 1.14 1.35 2.5 2.52 3.7 3.83 2.291 2.581 4.194 5.481 5.65 8.61 3.035 6.195 5.102 12.819 6.13 19.64.483 3.423 1.46 6.758 2.9 9.9 2.19 4.78.19 10.66 2.15 15.54.89 2.19 2.53 4.06 3.06 6.35.75 3.33-1 6.66-1.47 10.05-1.14 7.94 4.59 15.31 5.11 23.31.085.469-.015.953-.28 1.35-.39.44-1.06.43-1.59.68-1 .48-1.27 1.83-1.59 2.95s-1.22 2.39-2.33 2.05c-16.43 8.79-33.44 16.91-49.87 25.7l-7.5 4-40.11 21.43c-.992.493-1.618 1.513-1.61 2.62 0 .48.06 1 .1 1.45-2.81.7-5.51 1.54-7.43 1.89-.79.15-1.58.3-2.36.47.19-.304.312-.645.36-1 .004-1.014-.763-1.88-1.77-2-.98-.097-1.969.033-2.89.38-2.293.627-4.634 1.058-7 1.29-2.81.27-5.67.26-8.39 1s-5.4 2.39-6.5 5c-.55 1.51-.795 3.115-.72 4.72-.061 6.181.672 12.345 2.18 18.34.048.482.318.915.73 1.17.35.14.77 0 1.12.16.308.186.539.478.65.82 1.68 3.82 2.07 8.08 2.52 12.24.668 6.173 1.511 12.325 2.53 18.45.6 3.58 1.34 7.32 3.67 10.08 2.56 3 6.61 4.33 10.52 4.86 8.25 1.11 16.58-.56 24.72-2.27 1.52-.32 3.15-.71 4.17-1.89.746-.941 1.104-2.133 1-3.33-.19-4.11-3.93-7-7.33-9.31l-4.64-3.21c-.81-.432-1.225-1.369-1-2.26l.3-6.07h-.9c1-4.28 2.61-8.39 5.76-11.33 2.17-2 5-3.4 7.27-5.22 2.912 2.239 6.441 3.534 10.11 3.71 6-8.08 14.45-13.58 22.9-19 6.863-4.335 13.957-8.295 21.25-11.86 5.913-2.923 11.916-5.661 18-8.21 8.6-3.62 17.36-6.85 26.13-10 5.85-2.1 11.75-4.17 17.14-7.27 14-8.09 23.89-24.24 22-40.41-2.38-20.4 2.71-41.66 2.37-62.2-.1-6-.32-12-2.14-17.75.423.3.821.635 1.19 1 3.64 3.4 4.52 8.8 8 12.68 2.71 3.05 6.83 5 8.47 8.72 1.25 2.85 1.07 6.7 3.68 8.34.74.47 1.62.67 2.36 1.13.885.631 1.631 1.438 2.19 2.37 2.77 3.95 5.64 8.18 5.94 13 .13 1.91-.05 4.12 1.35 5.41.4.37.91.64 1.12 1.14.44 1-.72 2.06-.92 3.17-.29 1.54 1.23 2.71 2.17 4 1.601 2.203 1.601 5.207 0 7.41-8.2 10.65-9.68 25-16.85 36.39-2.48 3.93-5.24 7.65-7.64 11.63-7.38 12.22-11.11 26.26-14.73 40.09 1.546 2.692 3.642 5.03 6.15 6.86-1.355 4.657-3.691 8.97-6.85 12.65-.806.9-1.561 1.845-2.26 2.83-.587-.742-1.355-1.321-2.23-1.68-1.315 5.741-1.986 11.61-2 17.5 0 3.88.53 8.31 3.68 10.55 1.257.792 2.64 1.364 4.09 1.69l6.86 2c1.207.463 2.517.591 3.79.37.81-.23 1.53-.73 2.36-.89.902-.093 1.813.027 2.66.35l5.93 1.73c2.005.534 3.965 1.226 5.86 2.07 1.69.81 3.25 1.86 4.91 2.76 2.761 1.395 5.626 2.572 8.57 3.52l10.22 3.52c2.847 1.129 5.823 1.901 8.86 2.3 2.1.18 4.23 0 6.3.36 1.58.27 3.11.84 4.7 1 2.638.078 5.233-.693 7.4-2.2.847-.478 1.577-1.137 2.14-1.93 1.5-2.34.21-5.43-1.25-7.79-2.71-4.38-6.1-8.48-10.57-11-1.81-1-3.77-1.74-5.64-2.66-5.32-2.6-9.33-6.94-14.36-9.91-1.319-.934-3.128-.812-4.31.29-4.18-2.71-8.7-5.36-11-9.77-1.025-2.128-1.7-4.407-2-6.75 2.35.56 4.72 1 7.11 1.39 3.89-15.08 8.14-30.43 15.75-44.03zm-96.07-426.49c-.2 1.13-.42 2.25-.66 3.37-2 9.39-4.86 19.91-11.4 26.9-2.151 2.049-4.65 3.698-7.38 4.87l-.73.36c4.71-12.58 12.21-24.24 20.17-35.5z" fill="url(#a)" fill-rule="nonzero" transform="matrix(.19019 0 0 .19019 -38.35 -35.89)"/><path d="m37.345 10.346c.14-.663.247-1.36.614-1.932.251-.36.555-.68.9-.951.582-.493 1.204-.966 1.928-1.206.725-.24 1.577-.207 2.186.253.608.46.865 1.254.96 2.01.13 1.04 0 2.136-.515 3.043-.59 1.03-1.613 1.712-2.473 2.538-.622.596-1.164 1.271-1.61 2.008-.204.384-.45.744-.735 1.073-.293.331-.726.504-1.166.466-.367-.06-.665-.314-.95-.558-.352-.308-1.3-.857-1.332-1.346-.023-.396.717-1.294.898-1.664.562-1.196.996-2.447 1.295-3.734z" fill="#fbbebe" fill-rule="nonzero"/><path d="m37.345 10.346c.14-.663.247-1.36.614-1.932.251-.36.555-.68.9-.951.582-.493 1.204-.966 1.928-1.206.725-.24 1.577-.207 2.186.253.608.46.865 1.254.96 2.01.13 1.04 0 2.136-.515 3.043-.59 1.03-1.613 1.712-2.473 2.538-.622.596-1.164 1.271-1.61 2.008-.204.384-.45.744-.735 1.073-.293.331-.726.504-1.166.466-.367-.06-.665-.314-.95-.558-.352-.308-1.3-.857-1.332-1.346-.023-.396.717-1.294.898-1.664.562-1.196.996-2.447 1.295-3.734z" fill-opacity=".1" fill-rule="nonzero"/><path d="m17.375 29.355c1.524-.405 3.096-.597 4.673-.57 2.63.038 5.339.675 7.844-.131.646-.224 1.275-.497 1.88-.816.505-.251 1.018-.51 1.404-.92 1.246-1.32 1.782-3.308 2.172-5.083.39-1.774.49-3.596.592-5.408.648.302 1.33.6 2.05.54.719-.061 1.436-.609 1.432-1.332-.107 1.68-.19 3.38.093 5.038.11.658.282 1.307.34 1.973.214 2.404-1.047 4.806-.597 7.177.151.728-.178 1.476-.817 1.855-.647.348-1.408.391-2.12.57-1.393.356-2.61 1.242-4.01 1.573-.653.154-1.332.19-1.974.356-.925.243-1.763.772-2.705.94-.705.125-1.432.04-2.145.1-.62.051-1.229.215-1.85.23-1.522.038-2.962-.823-3.974-1.966-1.011-1.143-1.652-2.741-2.288-4.126z" fill="#3596d1" fill-rule="nonzero"/><path d="m17.375 29.355c1.524-.405 3.096-.597 4.673-.57 2.63.038 5.339.675 7.844-.131.646-.224 1.275-.497 1.88-.816.505-.251 1.018-.51 1.404-.92 1.246-1.32 1.782-3.308 2.172-5.083.39-1.774.49-3.596.592-5.408.648.302 1.33.6 2.05.54.719-.061 1.436-.609 1.432-1.332-.107 1.68-.19 3.38.093 5.038.11.658.282 1.307.34 1.973.214 2.404-1.047 4.806-.597 7.177.151.728-.178 1.476-.817 1.855-.647.348-1.408.391-2.12.57-1.393.356-2.61 1.242-4.01 1.573-.653.154-1.332.19-1.974.356-.925.243-1.763.772-2.705.94-.705.125-1.432.04-2.145.1-.62.051-1.229.215-1.85.23-1.522.038-2.962-.823-3.974-1.966-1.011-1.143-1.652-2.741-2.288-4.126z" fill="#77a932" fill-rule="nonzero"/><g fill="#3596d1"><path d="m85.772 31.693c7.183 0 13.093 5.91 13.093 13.092 0 7.183-5.91 13.093-13.093 13.093-7.182 0-13.092-5.91-13.092-13.093v-.002c0-7.181 5.91-13.09 13.092-13.09m0-3.233c-8.956 0-16.325 7.37-16.325 16.325 0 8.956 7.37 16.326 16.325 16.326 8.956 0 16.326-7.37 16.326-16.326v-.002c-.01-8.951-7.374-16.314-16.326-16.323z" fill-rule="nonzero"/><path d="m83.3565911 24.6415593h3.8266228v4.0282242h-3.8266228z" stroke-width=".19019"/><path d="m689.04 330.53h20.12v21.18h-20.12z" transform="matrix(.163025 .0979551 -.0979551 .163025 14.055 -95.1042)"/><path d="m724.34 364.89h20.12v21.18h-20.12z" transform="matrix(.0922059 .166344 -.166344 .0922059 96.0666 -121.263)"/><path d="m724.81 461.5h20.12v21.18h-20.12z" transform="matrix(-.100785 .16129 -.16129 -.100785 251.624 -17.0504)"/><path d="m560.79 364.89h20.12v21.18h-20.12z" transform="matrix(-.0922059 .166344 -.166344 -.0922059 185.316 -24.8157)"/><path d="m560.33 461.5h20.12v21.18h-20.12z" transform="matrix(.100785 .16129 -.16129 .100785 88.7903 -85.6823)"/><path d="m596.1 330.53h20.12v21.18h-20.12z" transform="matrix(-.163025 .0979551 -.0979551 -.163025 209.169 25.2215)"/><path d="m83.3565911 60.8993809h3.8266228v4.0282242h-3.8266228z" stroke-width=".19019"/><path d="m689.04 496.66h20.12v21.18h-20.12z" transform="matrix(.163025 -.0979551 .0979551 .163025 -69.0466 46.3684)"/><path d="m596.1 496.66h20.12v21.18h-20.12z" transform="matrix(-.163025 -.0979551 .0979551 -.163025 126.068 202.654)"/><path d="m65.2295822 43.1736729h4.6330284v3.42342h-4.6330284z" stroke-width=".19019"/><path d="m736.3 415.71h24.36v18h-24.36z" transform="matrix(-.19019 0 0 -.19019 246.352 125.659)"/></g><path d="m116.187 8.127c7.182 0 13.093 5.91 13.093 13.092 0 7.183-5.91 13.093-13.093 13.093-7.182 0-13.092-5.91-13.092-13.093v-.002c0-7.181 5.91-13.09 13.092-13.09m0-3.233c-8.956 0-16.326 7.37-16.326 16.325 0 8.956 7.37 16.326 16.326 16.326s16.326-7.37 16.326-16.326v-.002c-.01-8.951-7.374-16.314-16.326-16.323z" fill="#24719e" fill-rule="nonzero"/><path d="m113.7717759 1.0770183h3.8266228v4.0282242h-3.8266228z" fill="#24719e" stroke-width=".19019"/><path d="m848.96 206.62h20.12v21.18h-20.12z" fill="#24719e" transform="matrix(.163025 .0979551 -.0979551 .163025 6.26288 -114.136)"/><path d="m884.26 240.98h20.12v21.18h-20.12z" fill="#24719e" transform="matrix(.0922059 .166344 -.166344 .0922059 91.1254 -160.006)"/><path d="m884.73 337.59h20.12v21.18h-20.12z" fill="#24719e" transform="matrix(-.100785 .16129 -.16129 -.100785 278.17 -78.8982)"/><path d="m720.71 240.98h20.12v21.18h-20.12z" fill="#24719e" transform="matrix(-.0922059 .166344 -.166344 -.0922059 209.863 -86.4065)"/><path d="m720.25 337.59h20.12v21.18h-20.12z" fill="#24719e" transform="matrix(.100785 .16129 -.16129 .100785 83.1017 -122.553)"/><path d="m756.02 206.62h20.12v21.18h-20.12z" fill="#24719e" transform="matrix(-.163025 .0979551 -.0979551 -.163025 253.517 -34.211)"/><path d="m113.7717759 37.332938h3.8266228v4.0282242h-3.8266228z" fill="#24719e" stroke-width=".19019"/><path d="m848.96 372.75h20.12v21.18h-20.12z" fill="#24719e" transform="matrix(.163025 -.0979551 .0979551 .163025 -52.5647 58.6681)"/><path d="m756.02 372.75h20.12v21.18h-20.12z" fill="#24719e" transform="matrix(-.163025 -.0979551 .0979551 -.163025 194.69 174.551)"/><path d="m95.6428651 19.60723h4.6330284v3.42342h-4.6330284z" fill="#24719e" stroke-width=".19019"/><path d="m896.21 291.8h24.36v18h-24.36z" fill="#24719e" transform="matrix(-.19019 0 0 -.19019 307.181 78.527)"/><path d="m55.349 7.119h.463c7.01.239 12.646 6.07 12.646 13.085 0 7.181-5.909 13.091-13.09 13.092h-.465c-7.01-.239-12.646-6.07-12.646-13.085 0-7.182 5.91-13.092 13.092-13.092zm.001-3.233h-.002c-8.956 0-16.326 7.37-16.326 16.325 0 8.746 7.028 16.018 15.769 16.316.19 0 .38.01.57.01 8.957 0 16.326-7.37 16.326-16.326 0-8.745-7.028-16.017-15.768-16.316-.19 0-.38-.01-.57-.01h.001z" fill="#1c5779" fill-rule="nonzero"/><path d="m483.31 189.04h20.12v21.18h-20.12z" fill="#1c5779" transform="matrix(.190073 .00667071 -.00667071 .190073 -37.3549 -39.5103)"/><path d="m531.97 202.99h20.12v21.18h-20.12z" fill="#1c5779" transform="matrix(.159523 .10356 -.10356 .159523 .385221 -85.4729)"/><path d="m566.07 238.55h20.12v21.18h-20.12z" fill="#1c5779" transform="matrix(.086374 .169445 -.169445 .086374 63.6739 -107.648)"/><path d="m563.18 335.12h20.12v21.18h-20.12z" fill="#1c5779" transform="matrix(-.10632 .1577 -.1577 -.10632 186.138 -23.78)"/><path d="m402.62 232.88h20.12v21.18h-20.12z" fill="#1c5779" transform="matrix(-.0979266 .163042 -.163042 -.0979266 120.243 -33.0299)"/><path d="m398.8 329.42h20.12v21.18h-20.12z" fill="#1c5779" transform="matrix(.0950939 .16546 -.16546 .0950939 56.5118 -70.9029)"/><path d="m439.09 199.76h20.12v21.18h-20.12z" fill="#1c5779" transform="matrix(-.166326 .0922379 -.0922379 -.166326 141.183 -2.32898)"/><path d="m476.7 379.55h20.12v21.18h-20.12z" fill="#1c5779" transform="matrix(.190073 .00667071 -.00667071 .190073 -36.0852 -39.4451)"/><path d="m526.21 369.02h20.12v21.18h-20.12z" fill="#1c5779" transform="matrix(.166326 -.0922379 .0922379 .166326 -60.5682 22.6329)"/><path d="m433.33 365.79h20.12v21.18h-20.12z" fill="#1c5779" transform="matrix(-.159523 -.10356 .10356 -.159523 77.7337 141.649)"/><path d="m384.73 283.18h24.36v18h-24.36z" fill="#1c5779" transform="matrix(.190073 .00667071 -.00667071 .190073 -36.7479 -38.8572)"/><path d="m576.3 289.83h24.36v18h-24.36z" fill="#1c5779" transform="matrix(-.190073 -.00667071 .00667071 -.190073 183.442 81.658)"/><path d="m13.191 103.69c-.47.057-.928.2-1.348.42-.57.348-.923.963-1.174 1.583-.63 1.555-.76 3.263-.787 4.945-.023 1.354.023 2.74.508 4.003.133.4.364.76.671 1.048.27.213.584.365.919.445.722.19 1.561.19 2.153-.266.658-.516.823-1.423.962-2.246.19-1.111.455-2.283 1.28-3.057.612-.57 1.49-.856 1.934-1.563.53-.84.251-1.938-.087-2.874-.295-.81-.727-2.455-1.575-2.87-.848-.414-2.573.272-3.456.432zm31.28 3.984c-.256.907-.711 1.746-1.331 2.456-.38.433-.846.96-.647 1.498.082.183.203.344.354.474 2.788 2.73 6.689 4.057 10.56 4.54.062.017.128.017.19 0 .114-.052.14-.19.155-.318.062-.403.062-.814 0-1.217-.19-.951-1.017-1.61-1.827-2.132-.81-.521-1.697-1.027-2.15-1.877-.57-1.058-.325-2.435-.996-3.424-.544-.804-1.554-1.14-2.512-1.299-.333-.05-1.04-.416-1.332-.247-.296.171-.363 1.216-.464 1.546z" fill="#fbbebe" fill-rule="nonzero"/><path d="m12.81 103.591c0-.193-.145-.357-.336-.38-.186-.019-.374.005-.55.07-.436.119-.881.2-1.33.244-.535.05-1.08.049-1.6.19-.52.14-1.027.45-1.238.95-.103.286-.15.59-.137.893-.011 1.167.128 2.331.414 3.463.01.092.062.174.141.223.067.026.147 0 .213.03.059.035.102.09.124.154.321.723.395 1.521.48 2.313.128 1.165.288 2.326.482 3.484.114.675.255 1.384.7 1.902.487.57 1.259.816 2.003.916 1.57.21 3.157-.106 4.709-.43.296-.029.574-.154.793-.355.142-.178.21-.403.19-.63-.036-.776-.75-1.33-1.396-1.757l-.89-.599c-.062-.034-.115-.082-.156-.14-.042-.089-.058-.188-.044-.286l.057-1.141c-1.203.02-2.301.701-2.853 1.77-.123.246-.24.533-.496.628-.318.12-.671-.148-.778-.47-.074-.332-.064-.677.029-1.004.52-2.792.4-5.662.717-8.484.02-.317.117-.624.283-.894.154-.213.441-.4.47-.66zm38.845 10.826c.13.216.334.38.456.604.122.225.12.552-.099.68-.129.056-.272.071-.41.041-2.792-.346-5.415-1.532-7.519-3.4-.349-.295-.659-.635-.92-1.01-.245-.38-.453-.828-.871-.984-.25 1.084-.377 2.193-.38 3.306 0 .732.1 1.569.7 1.993.24.15.503.257.78.318l1.306.369c.23.087.48.11.722.07.154-.042.291-.139.45-.167.172-.018.345.004.507.064l1.128.33c.381.097.755.224 1.116.38.322.152.62.352.934.52.526.265 1.072.487 1.634.665l1.985.688c.543.214 1.11.36 1.69.434.399.034.804 0 1.2.068.3.052.59.16.895.19.501.014.994-.132 1.407-.416.161-.09.3-.214.41-.363.285-.444.04-1.027-.24-1.474-.516-.826-1.16-1.6-2.013-2.071-.346-.19-.718-.331-1.074-.504-1.012-.491-1.778-1.31-2.735-1.872-.903-.525-1.485.843-1.06 1.54z" fill="#373f43" fill-rule="nonzero"/><path d="m23.768 34.48c-1.049.72-2.251 1.188-3.511 1.365-.66.082-1.324.117-1.988.106-2.769-.003-5.534-.234-8.265-.69 1.088-1.198 2.187-2.473 2.598-4.044.203-.829.245-1.689.123-2.533-.165-1.084-.423-2.151-.772-3.19 1.165.063 2.334.033 3.494-.089.662-.066 2.282-.67 2.853-.213.534.424.13 1.925.121 2.617v.074c.03 1.051.257 2.087.668 3.055.837 1.871 2.626 3.408 4.679 3.541z" fill="#fbbebe" fill-rule="nonzero"/><path d="m18.429 27.8c-1.686 1.101-3.768 1.42-5.706.875-.165-1.084-.423-2.151-.772-3.19 1.165.063 2.334.033 3.494-.09.662-.066 2.282-.669 2.853-.212.544.424.14 1.924.131 2.617z" fill-opacity=".1" fill-rule="nonzero"/><circle cx="14.618" cy="21.65" fill="#fbbebe" r="6.961"/><path d="m44.152 56.872c.007 1.142-.591 2.206-1.57 2.794-.538.282-1.114.484-1.71.599-3.185.76-6.446 1.386-9.716 1.2-.707-.04-1.426-.124-2.061-.434-.636-.31-1.178-.89-1.273-1.59-.004-.173-.038-.344-.1-.506-.126-.179-.292-.326-.484-.43-.598-.46-.883-1.224-.734-1.964-.397.177-.812-.223-.998-.616-.186-.394-.333-.87-.732-1.035-.272-.116-.586-.048-.873-.122-.459-.118-.738-.57-1.062-.909-.66-.705-1.595-1.07-2.459-1.504-2.561-1.292-4.65-3.338-6.694-5.35-1.03-1.014-2.066-2.035-2.882-3.233-.228-.336-.439-.683-.633-1.039-.618-1.186-1.155-2.413-1.605-3.672-.259-.674-.521-1.385-.415-2.092.01-.065.023-.13.038-.19.133-.46.347-.893.632-1.277.707-1.04 1.635-2.025 2.853-2.345 1.217-.32 2.432.067 3.668.33.41.09.827.154 1.246.19 1.31.093 2.607-.26 3.874-.61l1.38-.38c.693-.19 1.04-1.026 1.74-1.173.312-.045.63-.029.937.048 1.42.27 2.853.618 4.102 1.34.278.162.545.343.797.542.89.704 1.594 1.642 1.852 2.737.286 1.204.018 2.49.307 3.694.235.994.833 1.862 1.418 2.7l3.4 4.854c.758 1.142 1.594 2.231 2.5 3.26 1.822 1.983 5.211 3.484 5.257 6.183z" fill="#8cc63f" fill-rule="nonzero"/><path d="m35.076 10.346c.14-.663.245-1.36.612-1.932.251-.36.555-.68.9-.951.584-.493 1.204-.966 1.929-1.206.724-.24 1.576-.207 2.185.253.608.46.865 1.254.96 2.01.13 1.04 0 2.136-.515 3.043-.59 1.03-1.613 1.712-2.473 2.538-.622.596-1.163 1.271-1.61 2.008-.204.384-.45.744-.735 1.073-.292.331-.725.504-1.165.466-.366-.06-.666-.314-.951-.558-.352-.308-1.301-.857-1.332-1.346-.022-.396.717-1.294.898-1.664.562-1.196.997-2.447 1.297-3.734z" fill="#fbbebe" fill-rule="nonzero"/><path d="m59.54 90.978c-.875 1.615-1.834 3.187-2.613 4.85-.455.972-.849 1.972-1.354 2.917-.552 1.031-1.231 1.99-1.807 3.009-1.451 2.57-2.26 5.468-3.007 8.323-2.091-.313-4.102-1.024-5.926-2.093-.644-.371-1.18-.905-1.552-1.548.69-2.61 1.4-5.266 2.805-7.573.458-.76.983-1.455 1.455-2.197 1.367-2.149 1.649-4.86 3.21-6.873.305-.416.305-.984 0-1.4-.18-.234-.468-.456-.414-.745.04-.211.26-.402.175-.6-.04-.094-.137-.146-.213-.214-.267-.246-.232-.664-.255-1.023-.06-.911-.605-1.712-1.141-2.456-.107-.176-.249-.329-.417-.449-.14-.085-.308-.123-.449-.21-.498-.313-.462-1.04-.701-1.577-.312-.71-1.098-1.071-1.613-1.647-.656-.733-.824-1.754-1.522-2.395-.07-.069-.146-.133-.226-.19.346 1.075.38 2.221.405 3.353.067 3.878-.903 7.893-.449 11.746.358 3.056-1.521 6.107-4.193 7.634-1.027.586-2.15.978-3.264 1.375-1.672.592-3.338 1.202-4.977 1.887-1.159.479-2.3.996-3.424 1.55-1.389.674-2.74 1.422-4.049 2.24-1.609 1.023-3.218 2.064-4.36 3.59-1.106-.03-2.117-.693-2.817-1.55-.7-.855-1.141-1.901-1.543-2.92-.355-.885-.705-1.798-.732-2.75.01-.209.139-.394.331-.476l7.64-4.049 1.428-.76c3.129-1.661 6.37-3.196 9.498-4.854.211.062.38-.177.443-.38.063-.204.107-.467.304-.558.1-.048.229-.046.303-.13.048-.075.067-.164.053-.252-.1-1.522-1.192-2.904-.974-4.405.094-.639.423-1.269.28-1.902-.1-.435-.413-.787-.582-1.2-.38-.922 0-2.033-.41-2.936-.273-.594-.459-1.225-.552-1.872-.197-1.289-.591-2.54-1.168-3.709-.278-.591-.64-1.139-1.075-1.626-.23-.247-.488-.467-.707-.724-.664-.788-.91-1.837-1.098-2.853-.342-1.84-.57-3.747-.152-5.569.145-.622.365-1.238.356-1.875-.01-.842-.38-1.826.205-2.434.243-.218.538-.37.856-.44 1.347-.401 2.748-.584 4.142-.76l6.381-.835c.73-.097 1.478-.19 2.123-.554.865-.477 1.44-1.362 1.791-2.282 1.12.818 1.539 2.341 2.433 3.397.435.515.974.932 1.45 1.405.584.615 1.119 1.274 1.6 1.972 1.332 1.828 2.663 3.67 3.614 5.72.496 1.064.88 2.175 1.276 3.28 1.558 4.35 4.097 8.479 5.15 12.975.259 1.099.93 2.092 1.035 3.216.118 1.192-.434 2.345-1.006 3.406z" fill="#373f43" fill-rule="nonzero"/><path d="m26.124 54.854c-.156.289-.237.613-.236.941.143-.703 1.11-1.093 1.174-1.79.028-.32-.03-.306-.229-.136-.3.26-.431.71-.709.985zm2.95 2.138c-.204.172-.357.398-.441.652-.165.357-.197.762-.09 1.141.143-.067.19-.242.234-.394.07-.237.172-.463.302-.673.115-.19.641-.614.64-.814-.006-.306-.504-.02-.645.088zm.34-23.56c-.447.384-.94.713-1.468.977-1.379.698-2.906 1.067-4.294 1.744-.685.351-1.351.739-1.994 1.162l-4.127 2.615c-.331.19-.637.422-.909.69-.496.529-.494 1.459-.95 2.026-.457.566-1.245.886-2.003.924-.76.005-1.515-.124-2.231-.38-.434-.13-.86-.285-1.275-.464-.434-.184-.845-.419-1.224-.7-.736-.556-1.332-1.364-1.442-2.283-.05-.63.034-1.264.245-1.86.115-.387.262-.764.44-1.127.101-.207.218-.405.35-.594.95-1.342 2.619-1.972 4.233-2.282.848-.165 1.712-.266 2.57-.41.41.09.826.154 1.245.19 1.31.093 2.608-.26 3.875-.61l1.38-.38c.693-.19 1.039-1.027 1.739-1.173.312-.045.63-.029.937.048 1.42.27 2.853.618 4.103 1.34.28.163.547.345.8.546z" fill-opacity=".1" fill-rule="nonzero"/><path d="m32.78 14.956c-.176 1.684-1.597 2.92-2.472 4.375-.42.705-.715 1.48-1.093 2.21-.434.796-.917 1.564-1.446 2.3l-1.546 2.245c-.91 1.32-1.828 2.651-2.99 3.756-2.025.345-3.724 1.849-5.645 2.58-1.536.583-3.212.663-4.825.977-1.612.314-3.284.95-4.231 2.282-.353.525-.62 1.103-.791 1.712-.213.595-.296 1.228-.244 1.858.116.917.704 1.723 1.44 2.282.736.56 1.616.89 2.499 1.164.716.255 1.47.384 2.23.38.761-.038 1.534-.33 2.005-.924.472-.593.45-1.497.951-2.025.273-.269.58-.5.911-.69l4.127-2.616c.643-.42 1.308-.806 1.992-1.154 1.388-.68 2.915-1.046 4.294-1.744s2.663-1.85 2.938-3.372c.841-4.675 4.076-8.616 6.847-12.477-.091-.019-.063-.226-.097-.313-.354-.917-1.141-1.607-2.027-2.043-.887-.435-1.876-.557-2.826-.763z" fill="#8cc63f" fill-rule="nonzero"/><path d="m18.19 14.99c.051-.507-.049-1.018-.288-1.468-.458-.76-1.419-1.029-2.282-1.207-.835-.171-1.675-.319-2.518-.442-.692-.1-1.402-.19-2.083-.034-.95.208-1.725.837-2.605 1.229-1.04.464-2.193.586-3.304.842-1.11.257-2.248.693-2.944 1.594-.529.685-.74 1.56-.898 2.412-1.318 7.11.101 14.404.371 21.632.105 2.812-.023 5.82-1.63 8.13l4.68-.124c1.2-.03 2.487-.093 3.424-.833.83-.65 1.221-1.698 1.577-2.69.28-.782.561-1.58.597-2.408.074-1.699-.89-3.367-.57-5.039.233-1.247 1.14-2.255 2.113-3.075.971-.82 2.052-1.521 2.837-2.526 1.404-1.774 1.672-4.199 1.497-6.453-.105-1.34-.344-2.681-.228-4.022.087-1.002.405-2.037 1.06-2.819.739-.886 1.129-1.441 1.193-2.698z" fill="#373f43" fill-rule="nonzero"/><path d="m17.902 13.522c-.45-.749-1.386-1.019-2.244-1.198.456.162.846.47 1.11.875.24.45.34.961.288 1.468-.065 1.256-.455 1.81-1.2 2.7-.656.78-.974 1.813-1.061 2.818-.116 1.34.123 2.681.228 4.022.175 2.254-.093 4.679-1.495 6.453-.787.997-1.868 1.712-2.838 2.526s-1.88 1.828-2.115 3.075c-.313 1.672.65 3.34.571 5.038-.036.83-.32 1.626-.6 2.408-.353.993-.747 2.039-1.576 2.69-.95.739-2.23.804-3.423.834l-3.315.088c-.074.121-.15.243-.232.36l4.68-.125c1.199-.03 2.486-.093 3.424-.833.829-.65 1.22-1.698 1.576-2.69.28-.782.561-1.58.598-2.408.074-1.699-.89-3.367-.57-5.039.233-1.247 1.14-2.255 2.112-3.075s2.052-1.521 2.838-2.526c1.403-1.774 1.671-4.199 1.496-6.453-.104-1.34-.344-2.681-.228-4.022.088-1.002.405-2.037 1.061-2.819.746-.886 1.142-1.441 1.2-2.698.052-.507-.047-1.018-.285-1.469zm35.166 73.293-8.591 20.949c-.488-.35-.895-.799-1.196-1.318.69-2.611 1.4-5.266 2.805-7.573.458-.761.983-1.455 1.455-2.197 1.367-2.15 1.649-4.861 3.21-6.873.305-.416.305-.984 0-1.4-.18-.234-.468-.457-.414-.746.04-.21.26-.401.175-.599-.04-.095-.137-.146-.213-.215-.267-.245-.232-.663-.255-1.023-.06-.91-.605-1.712-1.141-2.455-.107-.177-.249-.33-.417-.45-.14-.085-.308-.123-.449-.21-.498-.312-.462-1.039-.701-1.577-.312-.71-1.098-1.07-1.613-1.647-.656-.732-.824-1.753-1.522-2.394l-.059-.149.67-4.041z" fill-opacity=".1" fill-rule="nonzero"/></svg>